<svg xmlns="http://www.w3.org/2000/svg" width="1000" height="520" viewBox="0 0 1000 520"><rect width="1000" height="520" rx="24" fill="#f8fafc"/><style>.h{font:700 23px Arial;fill:#075985}.t{font:16px Arial;fill:#334155}.e{stroke:#0f172a;stroke-width:4;fill:none}.r{stroke:#e11d48;stroke-width:4;fill:none}.c{stroke:#0ea5e9;stroke-width:3;fill:none;stroke-dasharray:8 6}.p{fill:#e11d48}.b{fill:white;stroke:#bae6fd;stroke-width:2}</style><g transform="translate(25 25)"><rect class="b" width="460" height="470" rx="18"/><text x="20" y="38" class="h">เส้นสำคัญในสามเหลี่ยม</text><path d="M70 380 L230 80 L400 380 Z" class="e"/><line x1="230" y1="80" x2="235" y2="380" class="r"/><line x1="70" y1="380" x2="315" y2="230" class="c"/><line x1="400" y1="380" x2="150" y2="230" class="c"/><circle cx="234" cy="280" r="7" class="p"/><text x="35" y="425" class="t">มัธยฐาน: ยอด → กึ่งกลางด้าน</text><text x="35" y="452" class="t">เส้นแบ่งครึ่งมุม/ตั้งฉาก: จุดตัดมีสมบัติต่างกัน</text></g><g transform="translate(515 25)"><rect class="b" width="460" height="470" rx="18"/><text x="20" y="38" class="h">สร้างเส้นขนานผ่าน P</text><line x1="55" y1="355" x2="405" y2="355" class="e"/><line x1="55" y1="155" x2="405" y2="155" class="r"/><line x1="150" y1="410" x2="300" y2="80" class="c"/><path d="M180 355 A55 55 0 0 1 158 305 M270 155 A55 55 0 0 1 248 105" class="c"/><circle cx="270" cy="155" r="6" class="p"/><text x="285" y="145" class="t">P</text><text x="35" y="425" class="t">คัดลอกมุมสมนัยให้เท่ากัน</text><text x="35" y="452" class="t">หรือสร้างตั้งฉากสองครั้ง</text></g></svg>
