<svg xmlns="http://www.w3.org/2000/svg" width="1000" height="500" viewBox="0 0 1000 500"><rect width="1000" height="500" rx="24" fill="#f8fafc"/><style>.h{font:700 21px Arial;fill:#075985}.t{font:16px Arial;fill:#334155}.e{stroke:#0f172a;stroke-width:4;fill:none}.r{stroke:#e11d48;stroke-width:3;fill:none}.c{stroke:#0ea5e9;stroke-width:3;fill:none;stroke-dasharray:7 6}.p{fill:#e11d48}.b{fill:white;stroke:#bae6fd;stroke-width:2}</style>
<g transform="translate(20 20)"><rect class="b" width="305" height="455" rx="16"/><text x="18" y="35" class="h">เซนทรอยด์: มัธยฐาน</text><path d="M55 340 L155 167 L255 340 Z" class="e"/><line x1="155" y1="167" x2="155" y2="340" class="r"/><line x1="55" y1="340" x2="205" y2="253.5" class="r"/><line x1="255" y1="340" x2="105" y2="253.5" class="r"/><circle cx="155" cy="282.3" r="6" class="p"/><text x="30" y="405" class="t">ยอด → จุดกึ่งกลางด้านตรงข้าม</text><text x="30" y="433" class="t">จุดตัดแบ่งมัธยฐาน 2:1</text></g>
<g transform="translate(347 20)"><rect class="b" width="305" height="455" rx="16"/><text x="18" y="35" class="h">อินเซนเตอร์: แบ่งครึ่งมุม</text><path d="M55 340 L155 167 L255 340 Z" class="e"/><line x1="155" y1="167" x2="155" y2="340" class="r"/><line x1="55" y1="340" x2="205" y2="253.5" class="r"/><line x1="255" y1="340" x2="105" y2="253.5" class="r"/><circle cx="155" cy="282.3" r="6" class="p"/><circle cx="155" cy="282.3" r="57.7" class="c"/><text x="30" y="405" class="t">จุดตัดห่างด้านทั้งสามเท่ากัน</text><text x="30" y="433" class="t">เป็นศูนย์กลางวงกลมจารึก</text></g>
<g transform="translate(674 20)"><rect class="b" width="305" height="455" rx="16"/><text x="18" y="35" class="h">เซอร์คัมเซนเตอร์</text><path d="M55 340 L155 167 L255 340 Z" class="e"/><line x1="155" y1="130" x2="155" y2="390" class="r"/><line x1="30" y1="210" x2="250" y2="337" class="r"/><line x1="280" y1="210" x2="60" y2="337" class="r"/><circle cx="155" cy="282.3" r="6" class="p"/><circle cx="155" cy="282.3" r="115.5" class="c"/><text x="25" y="405" class="t">จุดตัดเส้นแบ่งครึ่งตั้งฉาก</text><text x="25" y="433" class="t">ห่างจุดยอดทั้งสามเท่ากัน</text></g></svg>
