<svg xmlns="http://www.w3.org/2000/svg" width="1000" height="470" viewBox="0 0 1000 470"><rect width="1000" height="470" rx="24" fill="#f0f9ff"/><style>.h{font:700 23px Arial;fill:#075985}.t{font:16px Arial;fill:#334155}.e{stroke:#0f172a;stroke-width:4;fill:none}.r{stroke:#e11d48;stroke-width:4;fill:none}.c{stroke:#0ea5e9;stroke-width:3;fill:none;stroke-dasharray:8 6}.b{fill:white;stroke:#bae6fd;stroke-width:2}</style>
<g transform="translate(25 25)"><rect class="b" width="460" height="410" rx="16"/><text x="20" y="38" class="h">จัตุรัสจากด้าน AB</text><line x1="75" y1="335" x2="385" y2="335" class="e"/><line x1="105" y1="365" x2="105" y2="65" class="c"/><line x1="355" y1="365" x2="355" y2="65" class="c"/><path d="M105 335 L355 335 L355 85 L105 85 Z" class="r"/><text x="38" y="385" class="t">ตั้งฉากที่ A,B แล้วคัดลอก AB เป็นด้านตั้ง</text></g>
<g transform="translate(515 25)"><rect class="b" width="460" height="410" rx="16"/><text x="20" y="38" class="h">สี่เหลี่ยมด้านขนาน</text><path d="M75 335 L330 335 L385 130 L130 130 Z" class="r"/><line x1="45" y1="130" x2="420" y2="130" class="c"/><line x1="75" y1="365" x2="145" y2="90" class="c"/><line x1="330" y1="365" x2="400" y2="90" class="c"/><text x="38" y="385" class="t">สร้างเส้นผ่านปลายด้านให้ขนานด้านตรงข้าม</text></g></svg>
